<svg width="1200" height="750" viewBox="0 0 1200 750" fill="none" xmlns="http://www.w3.org/2000/svg">
  <defs>
    <!-- Soft Glow Filter for Text -->
    <filter id="textGlow" x="-20%" y="-20%" width="140%" height="140%">
      <feGaussianBlur stdDeviation="3" result="blur" />
      <feComponentTransfer in="blur" result="glow">
        <feFuncA type="linear" slope="0.4"/>
      </feComponentTransfer>
      <feMerge>
        <feMergeNode in="glow"/>
        <feMergeNode in="SourceGraphic"/>
      </feMerge>
    </filter>

    <!-- Deep Red Shadow for the Mesh Heart -->
    <filter id="heartShadow" x="-30%" y="-30%" width="160%" height="160%">
      <feDropShadow dx="0" dy="6" stdDeviation="6" flood-color="#FF3B30" flood-opacity="0.25" />
    </filter>

    <!-- Metallic White Gradient -->
    <linearGradient id="glowWhite" x1="0%" y1="0%" x2="100%" y2="0%">
      <stop offset="0%" stop-color="#FFFFFF" />
      <stop offset="50%" stop-color="#E2E8F0" />
      <stop offset="100%" stop-color="#FFFFFF" />
    </linearGradient>

    <!-- Vibrant Red Gradient for Support System -->
    <linearGradient id="vibrantRed" x1="0%" y1="0%" x2="100%" y2="0%">
      <stop offset="0%" stop-color="#FF6B66" />
      <stop offset="100%" stop-color="#E82218" />
    </linearGradient>

    <!-- Subtle Background Glow Gradient -->
    <radialGradient id="bgGradient" cx="50%" cy="50%" r="70%" fx="15%" fy="50%">
      <stop offset="0%" stop-color="#FF3B30" stop-opacity="0.12" />
      <stop offset="100%" stop-color="#000000" stop-opacity="0" />
    </radialGradient>
  </defs>

  <!-- EKG Medical Grid -->
  <defs>
    <pattern id="ecgGridBg" width="40" height="40" patternUnits="userSpaceOnUse">
      <rect width="40" height="40" fill="none" stroke="#FF0000" stroke-width="0.3" stroke-opacity="0.05" />
      <rect width="8" height="8" fill="none" stroke="#FF0000" stroke-width="0.1" stroke-opacity="0.02" />
    </pattern>

    <!-- Animated Mask Gradient for EKG -->
    <linearGradient id="maskGradientBg" x1="0%" y1="0%" x2="100%" y2="0%">
        <stop offset="0%" stop-color="white" stop-opacity="0" />
        <stop offset="20%" stop-color="white" stop-opacity="0.1" />
        <stop offset="90%" stop-color="white" stop-opacity="1" />
        <stop offset="100%" stop-color="white" stop-opacity="0" />
    </linearGradient>

    <!-- EKG Pulse Glowing Filter -->
    <filter id="ecgGlowBgIcon" x="-20%" y="-20%" width="140%" height="140%">
        <feGaussianBlur stdDeviation="3" result="glow" />
        <feMerge>
            <feMergeNode in="glow" />
            <feMergeNode in="glow" />
            <feMergeNode in="SourceGraphic" />
        </feMerge>
    </filter>

    <!-- Ultra Glow Filter for the Heart -->
    <filter id="ultraGlow" x="-100%" y="-100%" width="300%" height="300%">
      <feGaussianBlur stdDeviation="4" result="blur" />
      <feFlood flood-color="#ff0000" flood-opacity="0.3" result="color" />
      <feComposite in="color" in2="blur" operator="in" result="glow" />
      <feMerge>
        <feMergeNode in="glow" />
        <feMergeNode in="glow" />
        <feMergeNode in="SourceGraphic" />
      </feMerge>
    </filter>
  </defs>

  <!-- Premium Dark Background (Sharp corners to match header copy.svg) -->
  <rect width="100%" height="100%" fill="#08090A" />
  <rect width="100%" height="100%" fill="url(#bgGradient)" />

  <!-- EKG Medical Grid Render -->
  <rect width="100%" height="100%" fill="url(#ecgGridBg)" opacity="1" />

  <!-- Authentic Medical PQRST Wave Path scaled into background -->
  <g transform="translate(0, 375) scale(0.6)">
      <!-- We animate the mask overlay natively in SVG -->
      <mask id="ecgMaskBgIcon" maskUnits="userSpaceOnUse" x="0" y="-400" width="2000" height="800">
          <rect y="-400" width="800" height="800" fill="url(#maskGradientBg)">
            <animate attributeName="x" values="-800;2000" dur="4s" repeatCount="indefinite" />
          </rect>
      </mask>
      <path
          d="M 0 0 
           L 130 0 C 145 -20 160 -20 175 0 L 185 0 L 192 15 L 200 -140 L 208 60 L 215 0 L 250 0 C 270 -30 300 -30 320 0
           L 530 0 C 545 -20 560 -20 575 0 L 585 0 L 592 15 L 600 -140 L 608 60 L 615 0 L 650 0 C 670 -30 700 -30 720 0
           L 930 0 C 945 -20 960 -20 975 0 L 985 0 L 992 15 L 1000 -140 L 1008 60 L 1015 0 L 1050 0 C 1070 -30 1100 -30 1120 0
           L 1330 0 C 1345 -20 1360 -20 1375 0 L 1385 0 L 1392 15 L 1400 -140 L 1408 60 L 1415 0 L 1450 0 C 1470 -30 1500 -30 1520 0
           L 1730 0 C 1745 -20 1760 -20 1775 0 L 1785 0 L 1792 15 L 1800 -140 L 1808 60 L 1815 0 L 1850 0 C 1870 -30 1900 -30 1920 0
           L 2000 0"
          fill="none"
          stroke="#ff0000"
          stroke-width="3"
          stroke-linecap="round"
          stroke-linejoin="round"
          mask="url(#ecgMaskBgIcon)"
          filter="url(#ecgGlowBgIcon)"
      />
  </g>

  <!-- Centered and Upscaled Content -->
  <g transform="translate(168, 267) scale(1.8)">
  <!-- Heart Icon (Scale and offset) -->
  <g transform="translate(10, 10)">
    <g style="transform-origin: 50px 50px;">
      <animateTransform 
        attributeName="transform" 
        type="scale" 
        values="1; 1.07; 1.03; 1.1; 1" 
        keyTimes="0; 0.15; 0.3; 0.5; 1" 
        dur="1.2s" 
        repeatCount="indefinite" 
      />
      <!-- Solid heart with intense glow -->
      <g filter="url(#ultraGlow)">
        <path d="M50 26 L28 8 L32 30 Z" fill="#FF1A1A" />
        <path d="M28 8 L6 28 L32 30 Z" fill="#E60000" />
        <path d="M6 28 L5 52 L25 50 Z" fill="#CC0000" />
        <path d="M6 28 L32 30 L25 50 Z" fill="#FF3333" />
        <path d="M5 52 L20 74 L25 50 Z" fill="#B30000" />
        <path d="M50 26 L32 30 L50 55 Z" fill="#FF4D4D" />
        <path d="M32 30 L25 50 L50 55 Z" fill="#FF1A1A" />
        <path d="M25 50 L20 74 L35 72 Z" fill="#990000" />
        <path d="M25 50 L50 55 L35 72 Z" fill="#BF0000" />
        <path d="M20 74 L50 98 L35 72 Z" fill="#800000" />
        <path d="M50 26 L72 8 L68 30 Z" fill="#FF3333" />
        <path d="M72 8 L94 28 L68 30 Z" fill="#CC0000" />
        <path d="M94 28 L95 52 L75 50 Z" fill="#B30000" />
        <path d="M94 28 L68 30 L75 50 Z" fill="#CC0000" />
        <path d="M95 52 L80 74 L75 50 Z" fill="#990000" />
        <path d="M50 26 L68 30 L50 55 Z" fill="#FF1A1A" />
        <path d="M68 30 L75 50 L50 55 Z" fill="#E60000" />
        <path d="M75 50 L80 74 L65 72 Z" fill="#800000" />
        <path d="M75 50 L50 55 L65 72 Z" fill="#990000" />
        <path d="M80 74 L50 98 L65 72 Z" fill="#660000" />
        <path d="M50 55 L35 72 L65 72 Z" fill="#A60000" />
        <path d="M35 72 L50 98 L65 72 Z" fill="#4D0000" />
      </g>

      <!-- Crisp white strokes over the solid facets -->
      <g stroke="white" stroke-opacity="0.25" stroke-width="0.2" fill="none">
        <path d="M50 26 L28 8 L32 30 Z" />
        <path d="M28 8 L6 28 L32 30 Z" />
        <path d="M6 28 L5 52 L25 50 Z" />
        <path d="M6 28 L32 30 L25 50 Z" />
        <path d="M5 52 L20 74 L25 50 Z" />
        <path d="M50 26 L32 30 L50 55 Z" />
        <path d="M32 30 L25 50 L50 55 Z" />
        <path d="M25 50 L20 74 L35 72 Z" />
        <path d="M25 50 L50 55 L35 72 Z" />
        <path d="M20 74 L50 98 L35 72 Z" />
        <path d="M50 26 L72 8 L68 30 Z" />
        <path d="M72 8 L94 28 L68 30 Z" />
        <path d="M94 28 L95 52 L75 50 Z" />
        <path d="M94 28 L68 30 L75 50 Z" />
        <path d="M95 52 L80 74 L75 50 Z" />
        <path d="M50 26 L68 30 L50 55 Z" />
        <path d="M68 30 L75 50 L50 55 Z" />
        <path d="M75 50 L80 74 L65 72 Z" />
        <path d="M75 50 L50 55 L65 72 Z" />
        <path d="M80 74 L50 98 L65 72 Z" />
        <path d="M50 55 L35 72 L65 72 Z" />
        <path d="M35 72 L50 98 L65 72 Z" />
      </g>

      <!-- White vertex dots -->
      <g fill="white" fill-opacity="0.8">
        <circle cx="50" cy="26" r="0.6" />
        <circle cx="28" cy="8" r="0.6" />
        <circle cx="6" cy="28" r="0.6" />
        <circle cx="5" cy="52" r="0.6" />
        <circle cx="20" cy="74" r="0.6" />
        <circle cx="50" cy="98" r="0.6" />
        <circle cx="80" cy="74" r="0.6" />
        <circle cx="95" cy="52" r="0.6" />
        <circle cx="94" cy="28" r="0.6" />
        <circle cx="72" cy="8" r="0.6" />
        <circle cx="32" cy="30" r="0.6" />
        <circle cx="68" cy="30" r="0.6" />
        <circle cx="25" cy="50" r="0.6" />
        <circle cx="75" cy="50" r="0.6" />
        <circle cx="50" cy="55" r="0.6" />
        <circle cx="35" cy="72" r="0.6" />
        <circle cx="65" cy="72" r="0.6" />
      </g>
    </g>
  </g>

  <!-- Text -->
  <text x="120" y="55" fill="url(#glowWhite)" filter="url(#textGlow)" font-family="Inter, sans-serif" font-size="38" font-weight="900" letter-spacing="-0.05em">Clinical Decision</text>
  <text x="120" y="95" fill="url(#vibrantRed)" filter="url(#textGlow)" font-family="Inter, sans-serif" font-size="38" font-weight="900" letter-spacing="-0.05em">Support System</text>
  </g>
</svg>
